<svg width="24" height="24" viewBox="0 0 24 24" fill="none" xmlns="http://www.w3.org/2000/svg">
<circle cx="11.5761" cy="11.5761" r="11.5761" fill="#0066B3"/>
<g clip-path="url(#clip0_1_64)">
<path fill-rule="evenodd" clip-rule="evenodd" d="M12.5108 15.5246C12.5108 15.5246 12.7635 15.4971 12.8929 15.3606C13.0113 15.2356 13.0072 14.9997 13.0072 14.9997C13.0072 14.9997 12.9915 13.8981 13.5126 13.7354C14.0261 13.5754 14.6855 14.8007 15.3853 15.2719C15.914 15.6281 16.3152 15.5502 16.3152 15.5502L18.1852 15.5246C18.1852 15.5246 19.1631 15.4655 18.6995 14.7107C18.6611 14.6488 18.429 14.1521 17.3095 13.1318C16.1365 12.0638 16.294 12.2365 17.7059 10.3888C18.566 9.26366 18.9097 8.57674 18.8022 8.28301C18.7002 8.00206 18.0675 8.07667 18.0675 8.07667L15.9626 8.08944C15.9626 8.08944 15.8065 8.0686 15.6907 8.13649C15.5778 8.20303 15.5045 8.35829 15.5045 8.35829C15.5045 8.35829 15.1717 9.22871 14.7273 9.96941C13.7899 11.5315 13.4153 11.6141 13.262 11.5173C12.9052 11.2908 12.9942 10.6086 12.9942 10.124C12.9942 8.60967 13.2284 7.97853 12.5389 7.8152C12.3102 7.76076 12.1417 7.72514 11.5563 7.71909C10.8051 7.7117 10.1697 7.72178 9.8095 7.89452C9.56984 8.00945 9.38496 8.26621 9.49794 8.281C9.63694 8.29914 9.95192 8.36434 10.119 8.58749C10.3347 8.87584 10.3272 9.52244 10.3272 9.52244C10.3272 9.52244 10.4511 11.305 10.0375 11.5261C9.75403 11.678 9.3651 11.3681 8.52903 9.95059C8.10107 9.22468 7.77787 8.42215 7.77787 8.42215C7.77787 8.42215 7.71556 8.27226 7.60395 8.1916C7.46906 8.09414 7.28075 8.0639 7.28075 8.0639L5.28062 8.07667C5.28062 8.07667 4.98002 8.08473 4.86978 8.21311C4.77186 8.3267 4.86225 8.56262 4.86225 8.56262C4.86225 8.56262 6.42825 12.1592 8.20173 13.972C9.82799 15.6335 11.674 15.5246 11.674 15.5246H12.5108Z" fill="white"/>
</g>
<defs>
<clipPath id="clip0_1_64">
<rect width="13.5054" height="7.71739" fill="white" transform="translate(4.82422 7.71741)"/>
</clipPath>
</defs>
</svg>
