<svg width="24" height="25" viewBox="0 0 24 25" fill="none" xmlns="http://www.w3.org/2000/svg">
<g clip-path="url(#clip0_1_30)">
<path fill-rule="evenodd" clip-rule="evenodd" d="M18.3928 0.529841C18.0835 0.123901 17.5531 -0.0448354 17.0661 0.1078L9.88925 2.35726H2.18278C1.51334 2.35726 0.970658 2.89996 0.970658 3.56939V5.18723C0.397337 5.45959 0.000961304 6.04395 0.000961304 6.7209V22.2361C0.000961304 23.1733 0.760721 23.933 1.69793 23.933H21.3343C22.2715 23.933 23.0313 23.1733 23.0313 22.2361V17.63H23.7585V16.6603V12.7815V11.8118H23.0313V6.7209C23.0313 5.78369 22.2715 5.02393 21.3343 5.02393H21.2969C21.3642 4.70228 21.3029 4.34939 21.0725 4.04691L18.3928 0.529841ZM20.1083 5.02393C20.3089 5.02393 20.4227 4.79416 20.3011 4.63457L17.6215 1.11752C17.5596 1.03633 17.4535 1.00258 17.3561 1.03311L6.135 4.55019C6.05194 4.5762 6.0142 4.61717 5.99383 4.65319C5.97005 4.69528 5.95803 4.75382 5.96787 4.81819C5.97771 4.88252 6.00671 4.93479 6.042 4.96786C6.07219 4.99615 6.12048 5.02393 6.20751 5.02393H20.1083ZM5.01977 5.02393C4.90845 4.46839 5.15871 3.83996 5.84499 3.62488L6.79546 3.32696H2.18278C2.04889 3.32696 1.94036 3.43549 1.94036 3.56939V5.02393H5.01977ZM22.0616 6.7209V11.8118H15.0313C14.6296 11.8118 14.304 12.1374 14.304 12.5391V16.9027C14.304 17.3044 14.6296 17.63 15.0313 17.63H22.0616V22.2361C22.0616 22.6377 21.736 22.9633 21.3343 22.9633H1.69793C1.29627 22.9633 0.970658 22.6377 0.970658 22.2361V6.7209C0.970658 6.31923 1.29627 5.99363 1.69793 5.99363H6.20751H20.1083H21.3343C21.736 5.99363 22.0616 6.31923 22.0616 6.7209ZM15.2737 12.7815V16.6603H22.7888V12.7815H15.2737ZM1.21308 8.90272H19.3949V10.8421H20.3646V8.41787V7.93302H19.8797H1.21308V8.90272ZM1.21308 20.5391H19.3949V18.5997H20.3646V21.0239V21.5088H19.8797H1.21308V20.5391ZM17.4555 15.6906C17.991 15.6906 18.4252 15.2564 18.4252 14.7209C18.4252 14.1854 17.991 13.7512 17.4555 13.7512C16.92 13.7512 16.4858 14.1854 16.4858 14.7209C16.4858 15.2564 16.92 15.6906 17.4555 15.6906ZM17.4555 16.4179C18.3927 16.4179 19.1525 15.6581 19.1525 14.7209C19.1525 13.7837 18.3927 13.0239 17.4555 13.0239C16.5183 13.0239 15.7585 13.7837 15.7585 14.7209C15.7585 15.6581 16.5183 16.4179 17.4555 16.4179Z" fill="#012253"/>
</g>
<defs>
<clipPath id="clip0_1_30">
<rect width="23.7576" height="24" fill="white" transform="translate(0.000961304 0.0522461)"/>
</clipPath>
</defs>
</svg>
