<svg width="24" height="24" viewBox="0 0 24 24" fill="none" xmlns="http://www.w3.org/2000/svg">
<g clip-path="url(#clip0_1_38)">
<path fill-rule="evenodd" clip-rule="evenodd" d="M18.3918 0.477595C18.0825 0.0716546 17.5521 -0.0970815 17.0651 0.0555539L9.88829 2.30502H2.18182C1.51238 2.30502 0.969697 2.84771 0.969697 3.51714V5.13498C0.396376 5.40735 0 5.99171 0 6.66865V22.1838C0 23.121 0.75976 23.8808 1.69697 23.8808H21.3333C22.2705 23.8808 23.0303 23.121 23.0303 22.1838V17.5777H23.7576V16.608V12.7293V11.7596H23.0303V6.66865C23.0303 5.73144 22.2705 4.97168 21.3333 4.97168H21.2959C21.3633 4.65004 21.3019 4.29714 21.0715 3.99467L18.3918 0.477595ZM20.1073 4.97168C20.308 4.97168 20.4217 4.74191 20.3002 4.58233L17.6205 1.06527C17.5586 0.984085 17.4526 0.950337 17.3552 0.980865L6.13404 4.49794C6.05098 4.52395 6.01324 4.56492 5.99287 4.60095C5.96909 4.64303 5.95707 4.70158 5.96691 4.76594C5.97675 4.83028 6.00575 4.88254 6.04104 4.91561C6.07122 4.9439 6.11951 4.97168 6.20655 4.97168H20.1073ZM5.01881 4.97168C4.90749 4.41615 5.15775 3.78771 5.84402 3.57263L6.7945 3.27471H2.18182C2.04793 3.27471 1.93939 3.38325 1.93939 3.51714V4.97168H5.01881ZM22.0606 6.66865V11.7596H15.0303C14.6286 11.7596 14.303 12.0852 14.303 12.4868V16.8505C14.303 17.2521 14.6286 17.5777 15.0303 17.5777H22.0606V22.1838C22.0606 22.5855 21.735 22.9111 21.3333 22.9111H1.69697C1.29531 22.9111 0.969697 22.5855 0.969697 22.1838V6.66865C0.969697 6.26698 1.29531 5.94138 1.69697 5.94138H6.20655H20.1073H21.3333C21.735 5.94138 22.0606 6.26698 22.0606 6.66865ZM15.2727 12.7293V16.608H22.7879V12.7293H15.2727ZM1.21212 8.85047H19.3939V10.7899H20.3636V8.36562V7.88078H19.8788H1.21212V8.85047ZM1.21212 20.4868H19.3939V18.5474H20.3636V20.9717V21.4565H19.8788H1.21212V20.4868ZM17.4545 15.6384C17.9901 15.6384 18.4242 15.2042 18.4242 14.6687C18.4242 14.1331 17.9901 13.699 17.4545 13.699C16.919 13.699 16.4848 14.1331 16.4848 14.6687C16.4848 15.2042 16.919 15.6384 17.4545 15.6384ZM17.4545 16.3656C18.3918 16.3656 19.1515 15.6059 19.1515 14.6687C19.1515 13.7314 18.3918 12.9717 17.4545 12.9717C16.5173 12.9717 15.7576 13.7314 15.7576 14.6687C15.7576 15.6059 16.5173 16.3656 17.4545 16.3656Z" fill="#004184"/>
</g>
<defs>
<clipPath id="clip0_1_38">
<rect width="23.7576" height="24" fill="white"/>
</clipPath>
</defs>
</svg>
